<svg xmlns="http://www.w3.org/2000/svg" width="1176" height="680" viewBox="0 0 1176 680" role="img" aria-labelledby="title desc">
<title id="title">The shape of a stage table</title>
<desc id="desc">The general pattern of a stage table, drawn with v1's line. A story starts as the human's draft. Promoted, it passes the forward line: check the story, write the tests, write the code, review, document, demonstrate, then the human's gate, and it is archived when merged. The line wraps once, after the tests. Review, documentation, demonstration and the human at the gate can send the story back to the coding stage, each at the cost of a round; the coding stage can return it to the tests stage after an approved test change, at no cost. Any working stage can ask the human a question, and the answer returns to the same stage. Closing the pull request before the gate discards the story back to the drafts. Each box names the stage, its role and v1's key for it.</desc>
<style>
text { font-family: "Inter", "Segoe UI", "Helvetica Neue", Helvetica, Arial, sans-serif; }
.code { font-family: ui-monospace, "SF Mono", "Cascadia Mono", Menlo, Consolas, "Liberation Mono", monospace; font-size: 0.92em; }
.ttl { font-size: 20px; font-weight: 600; }
.sub { font-size: 13.5px; font-weight: 400; }
.tag { font-size: 10.5px; font-weight: 600; letter-spacing: 0.09em; }
.nt { font-size: 14.5px; font-weight: 700; }
.nb { font-size: 12.5px; font-weight: 400; }
.lb { font-size: 12px; font-weight: 400; }
.lane-h { font-size: 13px; font-weight: 700; }
.lane-n { font-size: 12px; font-weight: 400; }
.col-h { font-size: 12.5px; font-weight: 700; }
.grp-c { font-size: 12px; font-weight: 600; }
.tx { font-size: 13px; font-weight: 400; }
.tx-bold { font-size: 13px; font-weight: 700; }
.tx-mono { font-size: 12px; font-weight: 400; font-family: ui-monospace, "SF Mono", "Cascadia Mono", Menlo, Consolas, "Liberation Mono", monospace; }
.tx-note { font-size: 12px; font-weight: 400; }
.tx-small { font-size: 11px; font-weight: 400; }
.lg { font-size: 12px; font-weight: 400; }
.sh, .fold { stroke-width: 1.5; stroke-linejoin: round; }
.n-end .sh { stroke-dasharray: 5 3; }
.e { fill: none; stroke-linejoin: round; }
.lb { paint-order: stroke fill; stroke-width: 4px; stroke-linejoin: round; }
.rule, .lane-a, .lane-b { stroke-width: 1; shape-rendering: crispEdges; }
.rule, .col-u { fill: none; } .col-r { stroke-dasharray: 2 3; }
.col-u { stroke-width: 1; shape-rendering: crispEdges; }
.grp { stroke-width: 1; } .grp-d { stroke-dasharray: 5 4; }
.e-flow { stroke-width: 1.5; }
.e-back { stroke-width: 1.5; }
.e-ask { stroke-width: 1.5; stroke-dasharray: 6 4; }
.e-stall { stroke-width: 1.5; stroke-dasharray: 6 4; }
.bg { fill: #ffffff; }
.ttl, .nt, .lane-h, .col-h, .tx-bold { fill: #1b1f24; }
.sub, .lane-n, .grp-c, .tx-note, .tx-small { fill: #5d6470; }
.nb, .tx, .tx-mono, .lg { fill: #363b43; }
.lb { stroke: #ffffff; } .lb.on-lane { stroke: #f5f7f9; }
.lane-a { fill: #f5f7f9; stroke: #dde1e6; }
.lane-b { fill: #ffffff; stroke: #dde1e6; }
.rule { stroke: #dde1e6; }
.grp { fill: #ffffff; stroke: #b4bac3; } .col-u { stroke: #b4bac3; }
.n-agent .sh { fill: #eaf2fc; stroke: #2f6db5; }
.n-agent .fold { fill: #c5d7ee; stroke: #2f6db5; }
.n-agent .tag, .k-agent { fill: #2862a5; }
.g-agent { stroke: #2f6db5; }
.n-human .sh { fill: #fff4df; stroke: #c27400; }
.n-human .fold { fill: #f3dab2; stroke: #c27400; }
.n-human .tag, .k-human { fill: #965a00; }
.g-human { stroke: #c27400; }
.n-ask .sh { fill: #f3eefb; stroke: #7a4fb5; }
.n-ask .fold { fill: #dbceed; stroke: #7a4fb5; }
.n-ask .tag, .k-ask { fill: #673e9f; }
.g-ask { stroke: #7a4fb5; }
.n-stall .sh { fill: #fcecec; stroke: #b53a3a; }
.n-stall .fold { fill: #eec8c8; stroke: #b53a3a; }
.n-stall .tag, .k-stall { fill: #9f2d2d; }
.g-stall { stroke: #b53a3a; }
.n-end .sh { fill: #ffffff; stroke: #8a8f99; }
.n-end .fold { fill: #e8e9eb; stroke: #8a8f99; }
.n-end .tag, .k-end { fill: #5d6470; }
.g-end { stroke: #8a8f99; }
.e-flow { stroke: #4b515c; } .ah-flow { fill: #4b515c; }
.lb-flow { fill: #2b3038; }
.e-back { stroke: #d0661a; } .ah-back { fill: #d0661a; }
.lb-back { fill: #a64e0e; }
.e-ask { stroke: #7a4fb5; } .ah-ask { fill: #7a4fb5; }
.lb-ask { fill: #673e9f; }
.e-stall { stroke: #b53a3a; } .ah-stall { fill: #b53a3a; }
.lb-stall { fill: #9f2d2d; }
@media (prefers-color-scheme: dark) {
  .bg { fill: #0f141a; }
  .ttl, .nt, .lane-h, .col-h, .tx-bold { fill: #e6edf3; }
  .sub, .lane-n, .grp-c, .tx-note, .tx-small { fill: #9da7b3; }
  .nb, .tx, .tx-mono, .lg { fill: #c9d1d9; }
  .lb { stroke: #0f141a; } .lb.on-lane { stroke: #151b22; }
  .lane-a { fill: #151b22; stroke: #2a313b; }
  .lane-b { fill: #0f141a; stroke: #2a313b; }
  .rule { stroke: #2a313b; }
  .grp { fill: #0f141a; stroke: #3d4651; } .col-u { stroke: #3d4651; }
  .n-agent .sh { fill: #13263d; stroke: #5b9be6; }
  .n-agent .fold { fill: #213d5f; stroke: #5b9be6; }
  .n-agent .tag, .k-agent { fill: #8dbdf4; }
  .g-agent { stroke: #5b9be6; }
  .n-human .sh { fill: #33260f; stroke: #e0a33a; }
  .n-human .fold { fill: #563f18; stroke: #e0a33a; }
  .n-human .tag, .k-human { fill: #f2bd63; }
  .g-human { stroke: #e0a33a; }
  .n-ask .sh { fill: #251c38; stroke: #a98be0; }
  .n-ask .fold { fill: #3f325a; stroke: #a98be0; }
  .n-ask .tag, .k-ask { fill: #c4aef2; }
  .g-ask { stroke: #a98be0; }
  .n-stall .sh { fill: #371a1c; stroke: #e06c6c; }
  .n-stall .fold { fill: #592a2c; stroke: #e06c6c; }
  .n-stall .tag, .k-stall { fill: #f29191; }
  .g-stall { stroke: #e06c6c; }
  .n-end .sh { fill: #0f141a; stroke: #8b939e; }
  .n-end .fold { fill: #282d34; stroke: #8b939e; }
  .n-end .tag, .k-end { fill: #a2abb7; }
  .g-end { stroke: #8b939e; }
  .e-flow { stroke: #bcc4ce; } .ah-flow { fill: #bcc4ce; }
  .lb-flow { fill: #dfe6ee; }
  .e-back { stroke: #ef8a3c; } .ah-back { fill: #ef8a3c; }
  .lb-back { fill: #f6a96d; }
  .e-ask { stroke: #a98be0; } .ah-ask { fill: #a98be0; }
  .lb-ask { fill: #c4aef2; }
  .e-stall { stroke: #e06c6c; } .ah-stall { fill: #e06c6c; }
  .lb-stall { fill: #f29191; }
}
</style>
<defs><marker id="ah-flow" viewBox="0 0 10 10" refX="6.67" refY="5" markerWidth="9" markerHeight="9" markerUnits="userSpaceOnUse" orient="auto-start-reverse"><path class="ah-flow" d="M0.5 1 L10 5 L0.5 9 L2.6 5 Z"/></marker><marker id="ah-back" viewBox="0 0 10 10" refX="6.67" refY="5" markerWidth="9" markerHeight="9" markerUnits="userSpaceOnUse" orient="auto-start-reverse"><path class="ah-back" d="M0.5 1 L10 5 L0.5 9 L2.6 5 Z"/></marker><marker id="ah-ask" viewBox="0 0 10 10" refX="6.67" refY="5" markerWidth="9" markerHeight="9" markerUnits="userSpaceOnUse" orient="auto-start-reverse"><path class="ah-ask" d="M0.5 1 L10 5 L0.5 9 L2.6 5 Z"/></marker><marker id="ah-stall" viewBox="0 0 10 10" refX="6.67" refY="5" markerWidth="9" markerHeight="9" markerUnits="userSpaceOnUse" orient="auto-start-reverse"><path class="ah-stall" d="M0.5 1 L10 5 L0.5 9 L2.6 5 Z"/></marker></defs>
<rect class="bg" width="1176" height="680"/>
<text class="ttl" x="40" y="48" text-anchor="start">The shape of a stage table</text>
<text class="sub" x="40" y="72" text-anchor="start">The general pattern, drawn with v1's line: forward to the human's gate, rework back to the code, questions to the human.</text>
<path class="e e-flow" d="M 224 160 L 293 160" marker-end="url(#ah-flow)"/>
<path class="e e-flow" d="M 456 160 L 517 160" marker-end="url(#ah-flow)"/>
<path class="e e-flow" d="M 576 216 L 576 248 Q 576 256 568 256 L 128 256 Q 120 256 120 264 L 120 333" marker-end="url(#ah-flow)"/>
<path class="e e-flow" d="M 224 392 L 293 392" marker-end="url(#ah-flow)"/>
<path class="e e-flow" d="M 456 392 L 517 392" marker-end="url(#ah-flow)"/>
<path class="e e-flow" d="M 680 392 L 749 392" marker-end="url(#ah-flow)"/>
<path class="e e-flow" d="M 912 392 L 973 392" marker-end="url(#ah-flow)"/>
<path class="e e-flow" d="M 1056 336 L 1056 195" marker-end="url(#ah-flow)"/>
<path class="e e-back" d="M 376 448 L 376 472 Q 376 480 368 480 L 188 480 Q 180 480 180 472 L 180 451" marker-end="url(#ah-back)"/>
<path class="e e-back" d="M 600 448 L 600 504 Q 600 512 592 512 L 164 512 Q 156 512 156 504 L 156 451" marker-end="url(#ah-back)"/>
<path class="e e-back" d="M 832 448 L 832 536 Q 832 544 824 544 L 140 544 Q 132 544 132 536 L 132 451" marker-end="url(#ah-back)"/>
<path class="e e-back" d="M 1056 448 L 1056 568 Q 1056 576 1048 576 L 116 576 Q 108 576 108 568 L 108 451" marker-end="url(#ah-back)"/>
<path class="e e-back" d="M 168 336 L 168 304 Q 168 296 176 296 L 616 296 Q 624 296 624 288 L 624 219" marker-end="url(#ah-back)"/>
<path class="e e-ask" d="M 816 336 L 816 219" marker-end="url(#ah-ask)"/>
<path class="e e-ask" d="M 848 216 L 848 333" marker-end="url(#ah-ask)"/>
<path class="e e-stall" d="M 944 616 L 48 616 Q 40 616 40 608 L 40 168 Q 40 160 48 160 L 61 160" marker-end="url(#ah-stall)"/>
<g class="n-human"><path class="sh" d="M 68 104 H 208 L 224 120 V 212 Q 224 216 220 216 H 68 Q 64 216 64 212 V 108 Q 64 104 68 104 Z"/><path class="fold" d="M 208 104 V 118 Q 208 120 210 120 H 224 Z"/><text class="tag" x="144" y="134.57" text-anchor="middle">HUMAN · <tspan class="code">drafts/</tspan></text><text class="nt" x="144" y="153.43" text-anchor="middle">Draft</text><text class="nb" x="144" y="175.25" text-anchor="middle">the human's text;</text><text class="nb" x="144" y="192.25" text-anchor="middle">not worked on</text></g>
<g class="n-agent"><rect class="sh" x="296" y="104" width="160" height="112" rx="8"/><text class="tag" x="376" y="126.07" text-anchor="middle">INTAKE · <tspan class="code">ready</tspan></text><text class="nt" x="376" y="144.93" text-anchor="middle">Vet the story</text><text class="nb" x="376" y="166.75" text-anchor="middle">buildable? exact</text><text class="nb" x="376" y="183.75" text-anchor="middle">interface, testable</text><text class="nb" x="376" y="200.75" text-anchor="middle">criteria, failing sides</text></g>
<g class="n-agent"><rect class="sh" x="520" y="104" width="160" height="112" rx="8"/><text class="tag" x="600" y="134.57" text-anchor="middle">TESTER · <tspan class="code">tests</tspan></text><text class="nt" x="600" y="153.43" text-anchor="middle">Write the tests</text><text class="nb" x="600" y="175.25" text-anchor="middle">one test per criterion,</text><text class="nb" x="600" y="192.25" text-anchor="middle">red on purpose</text></g>
<g class="n-agent"><rect class="sh" x="64" y="336" width="160" height="112" rx="8"/><text class="tag" x="144" y="366.57" text-anchor="middle">CODER · <tspan class="code">doing</tspan></text><text class="nt" x="144" y="385.43" text-anchor="middle">Write the code</text><text class="nb" x="144" y="407.25" text-anchor="middle">until the full check</text><text class="nb" x="144" y="424.25" text-anchor="middle">is green; refactor once</text></g>
<g class="n-agent"><rect class="sh" x="296" y="336" width="160" height="112" rx="8"/><text class="tag" x="376" y="358.07" text-anchor="middle">REVIEWER · <tspan class="code">review</tspan></text><text class="nt" x="376" y="376.93" text-anchor="middle">Review</text><text class="nb" x="376" y="398.75" text-anchor="middle">the diff against the</text><text class="nb" x="376" y="415.75" text-anchor="middle">story and the</text><text class="nb" x="376" y="432.75" text-anchor="middle">architecture</text></g>
<g class="n-agent"><rect class="sh" x="520" y="336" width="160" height="112" rx="8"/><text class="tag" x="600" y="366.57" text-anchor="middle">DOCUMENTER · <tspan class="code">docs</tspan></text><text class="nt" x="600" y="385.43" text-anchor="middle">Document</text><text class="nb" x="600" y="407.25" text-anchor="middle">what the reader must</text><text class="nb" x="600" y="424.25" text-anchor="middle">know; stale text fixed</text></g>
<g class="n-agent"><rect class="sh" x="752" y="336" width="160" height="112" rx="8"/><text class="tag" x="832" y="358.07" text-anchor="middle">DEMO · <tspan class="code">demo</tspan></text><text class="nt" x="832" y="376.93" text-anchor="middle">Demonstrate</text><text class="nb" x="832" y="398.75" text-anchor="middle">run the commands,</text><text class="nb" x="832" y="415.75" text-anchor="middle">compare with the</text><text class="nb" x="832" y="432.75" text-anchor="middle">expected output</text></g>
<g class="n-human"><rect class="sh" x="976" y="336" width="160" height="112" rx="8"/><text class="tag" x="1056" y="366.57" text-anchor="middle">GATE · <tspan class="code">accept</tspan></text><text class="nt" x="1056" y="385.43" text-anchor="middle">Accept</text><text class="nb" x="1056" y="407.25" text-anchor="middle">the human merges,</text><text class="nb" x="1056" y="424.25" text-anchor="middle">or sends back</text></g>
<g class="n-ask"><rect class="sh" x="712" y="104" width="240" height="112" rx="56"/><text class="tag" x="832" y="126.07" text-anchor="middle">QUESTION</text><text class="nt" x="832" y="144.93" text-anchor="middle">The human answers</text><text class="nb" x="832" y="166.75" text-anchor="middle">from any working stage,</text><text class="nb" x="832" y="183.75" text-anchor="middle">on the pull request; the stage</text><text class="nb" x="832" y="200.75" text-anchor="middle">that asked runs again</text></g>
<g class="n-end"><rect class="sh" x="1000" y="128" width="112" height="64" rx="32"/><text class="tag" x="1056" y="153.57" text-anchor="middle"><tspan class="code">done</tspan></text><text class="nt" x="1056" y="172.43" text-anchor="middle">Archived</text></g>
<text class="tx-note k-stall" x="956" y="620" text-anchor="start">any stage before the gate</text>
<text class="lb lb-flow" x="260" y="151.58" text-anchor="middle">promoted</text>
<text class="lb lb-flow" x="488" y="151.58" text-anchor="middle">buildable</text>
<text class="lb lb-flow" x="480" y="247.58" text-anchor="middle">checks green (lint)</text>
<text class="lb lb-flow" x="260" y="368.58" text-anchor="middle">checks</text><text class="lb lb-flow" x="260" y="383.58" text-anchor="middle">green (full)</text>
<text class="lb lb-flow" x="488" y="368.58" text-anchor="middle">no</text><text class="lb lb-flow" x="488" y="383.58" text-anchor="middle">findings</text>
<text class="lb lb-flow" x="716" y="368.58" text-anchor="middle">checks</text><text class="lb lb-flow" x="716" y="383.58" text-anchor="middle">green (full)</text>
<text class="lb lb-flow" x="944" y="368.58" text-anchor="middle">output as</text><text class="lb lb-flow" x="944" y="383.58" text-anchor="middle">expected</text>
<text class="lb lb-flow" x="1064" y="268.08" text-anchor="start">merged</text>
<text class="lb lb-back" x="298.75" y="471.58" text-anchor="middle">findings · round + 1</text>
<text class="lb lb-back" x="473.16" y="503.58" text-anchor="middle">code contradicts the story · round + 1</text>
<text class="lb lb-back" x="740.18" y="535.58" text-anchor="middle">output wrong · round + 1</text>
<text class="lb lb-back" x="943.38" y="567.58" text-anchor="middle">closed with a reason · round + 1</text>
<text class="lb lb-back" x="400" y="287.58" text-anchor="middle">approved test change · no round</text>
<text class="lb lb-ask" x="808" y="280.08" text-anchor="end">question</text>
<text class="lb lb-ask" x="856" y="280.08" text-anchor="start">answer</text>
<text class="lb lb-stall" x="827.74" y="607.58" text-anchor="middle">closed before the gate: discarded</text>
<g class="n-agent"><rect class="sh" x="40" y="645.5" width="26" height="13" rx="3"/></g><text class="lg" x="74" y="656" text-anchor="start">agent</text>
<g class="n-human"><rect class="sh" x="133.22" y="645.5" width="26" height="13" rx="3"/></g><text class="lg" x="167.22" y="656" text-anchor="start">the human</text>
<g class="n-ask"><rect class="sh" x="254.19" y="645.5" width="26" height="13" rx="3"/></g><text class="lg" x="288.19" y="656" text-anchor="start">question</text>
<g class="n-end"><rect class="sh" x="363.37" y="645.5" width="26" height="13" rx="3"/></g><text class="lg" x="397.37" y="656" text-anchor="start">end</text>
<path class="e e-flow" d="M 446.18 652 L 469.18 652" marker-end="url(#ah-flow)"/><text class="lg" x="480.18" y="656" text-anchor="start">forward</text>
<path class="e e-back" d="M 549.79 652 L 572.79 652" marker-end="url(#ah-back)"/><text class="lg" x="583.79" y="656" text-anchor="start">rework</text>
<path class="e e-ask" d="M 649.23 652 L 672.23 652" marker-end="url(#ah-ask)"/><text class="lg" x="683.23" y="656" text-anchor="start">question, answer</text>
<path class="e e-stall" d="M 805.57 652 L 828.57 652" marker-end="url(#ah-stall)"/><text class="lg" x="839.57" y="656" text-anchor="start">discard</text>
</svg>
